<svg version="1.1" id="Layer_1" xmlns="http://www.w3.org/2000/svg" xmlns:xlink="http://www.w3.org/1999/xlink" x="0px" y="0px"
	 width="100%" viewBox="0 0 768 768" enable-background="new 0 0 768 768" xml:space="preserve">
<path fill="#000000" opacity="1.000000" stroke="none" 
	d="
M465.510315,550.565430 
	C476.193542,571.171082 486.002991,591.758789 492.560303,613.715820 
	C500.764038,641.185913 504.112488,669.083069 499.313416,697.609009 
	C498.851349,700.355408 498.499512,703.213989 496.519348,705.405029 
	C494.217438,705.439392 494.217041,703.652527 493.936432,702.290588 
	C486.630737,666.829712 469.410187,636.384155 446.859344,608.558289 
	C427.644592,584.848755 404.339111,565.457642 381.535431,545.459045 
	C341.836304,510.643311 306.611877,471.977905 281.451874,425.036682 
	C264.066895,392.601318 252.638916,358.059967 246.366760,321.885437 
	C243.826920,307.237030 247.683670,293.266418 255.308533,280.678345 
	C270.639069,255.368881 290.141022,233.972595 315.930542,218.883209 
	C336.839478,206.649445 359.257233,199.274582 383.659424,198.772781 
	C386.937164,198.705368 389.158264,197.761917 391.094818,194.884506 
	C397.956116,184.689514 407.031708,176.571030 416.590179,168.997986 
	C420.500305,165.900040 422.850189,166.668762 424.205933,171.531113 
	C427.629639,183.810486 428.078796,196.493301 428.963806,209.108444 
	C429.101440,211.070023 428.695587,213.106995 429.880127,215.003265 
	C432.238983,215.575104 433.489838,213.722626 434.952301,212.539780 
	C463.706085,189.283768 492.399658,165.953186 521.194702,142.748444 
	C527.286560,137.839249 533.690796,133.312149 540.032959,128.722046 
	C542.258118,127.111595 544.514038,125.328590 547.517029,125.276337 
	C548.691406,127.604622 547.086487,128.983673 546.154297,130.392807 
	C521.981262,166.932892 497.820953,203.481842 473.468658,239.902359 
	C471.038422,243.536972 471.021698,245.859894 473.606049,249.480103 
	C485.851166,266.633423 494.548645,285.386322 497.768768,306.424103 
	C498.582642,311.741302 498.149811,317.068726 498.103210,322.389435 
	C497.985657,335.803223 499.490906,348.948303 503.806000,361.729614 
	C505.917511,367.983978 509.743347,373.249725 513.063171,378.806946 
	C518.020142,387.104767 523.346619,395.239288 525.825562,404.711212 
	C530.304688,421.825500 525.668396,436.902863 513.866211,449.416748 
	C504.614746,459.226196 489.366364,459.985565 475.270477,452.652679 
	C469.045288,449.414215 463.334869,445.437195 458.075806,440.723633 
	C445.397125,429.360077 429.796936,423.271454 414.192505,417.452606 
	C399.037140,411.801178 383.689789,406.718323 370.495026,396.936493 
	C363.168121,391.504761 356.865936,385.267151 353.116150,376.725159 
	C350.937897,371.763062 350.403656,366.596832 350.266052,361.268158 
	C347.220947,370.715546 347.544006,380.152893 350.180634,389.584869 
	C354.827637,406.208557 364.445740,419.957825 375.627991,432.682526 
	C390.136780,449.192627 406.019928,464.445587 419.809021,481.638336 
	C437.064819,503.153625 452.395477,525.888184 465.510315,550.565430 
z"/>
<path fill="#000000" opacity="1.000000" stroke="none" 
	d="
M332.000977,575.034119 
	C297.717804,550.943909 269.656250,521.434692 247.919739,486.017639 
	C226.849487,451.686127 218.734909,414.620453 224.360229,374.532471 
	C226.820709,356.998322 230.367462,339.774170 235.652756,322.893250 
	C236.286926,320.867767 236.528336,318.663788 238.590179,316.754730 
	C240.645264,321.776093 240.398254,326.921753 240.886292,331.847595 
	C246.785980,391.393097 269.418030,443.535553 308.562805,488.881409 
	C335.758606,520.385376 366.028778,548.642578 396.848236,576.429443 
	C419.520996,596.871216 441.171478,618.330078 459.091675,643.196472 
	C473.898132,663.742188 482.884918,686.607605 485.306488,711.918579 
	C485.815796,717.241760 486.970276,722.586914 485.700378,727.845093 
	C483.810303,728.079468 483.542114,726.958679 483.246613,726.064880 
	C475.150330,701.574707 459.565002,681.909241 442.581268,663.193787 
	C414.925385,632.717957 381.947083,608.712646 348.045227,585.852661 
	C342.796051,582.313171 337.547791,578.772278 332.000977,575.034119 
z"/>
<path fill="#000000" opacity="1.000000" stroke="none" 
	d="
M281.079224,189.101685 
	C265.447662,199.264999 251.636520,210.842163 240.781616,225.771133 
	C234.657089,234.194321 232.177521,242.976700 236.294083,252.909897 
	C237.826889,256.608582 236.388947,257.936188 232.870026,258.704224 
	C223.928055,260.655914 215.016479,262.763580 206.144348,265.012451 
	C200.684387,266.396423 200.424530,267.483307 204.013107,271.685059 
	C207.512970,275.782959 206.413742,279.638885 203.424606,283.355682 
	C207.615204,289.103180 206.875778,296.488556 201.258270,302.263306 
	C206.904465,305.292267 205.633301,310.889130 205.903015,315.732208 
	C206.541336,327.194824 205.897308,338.708649 207.068878,350.164459 
	C207.202591,351.472046 207.052628,352.830078 206.876938,354.143677 
	C206.442123,357.394775 205.050781,358.340057 201.776642,356.781799 
	C191.225677,351.760468 191.313416,351.857269 191.585876,340.065826 
	C191.801315,330.742950 191.639832,321.411346 191.645599,312.083618 
	C191.646118,311.250763 191.910370,310.300903 191.602325,309.604279 
	C189.739044,305.390564 197.313248,303.614075 194.896469,301.112610 
	C191.944443,298.057159 191.790009,295.183777 191.896713,291.761414 
	C191.972351,289.335205 191.213501,286.695770 193.286331,284.643860 
	C193.837280,284.098450 193.946152,283.407288 193.515320,282.843506 
	C189.657944,277.795837 190.929733,273.279510 195.758194,268.970917 
	C191.542496,267.504181 188.500916,269.279663 185.390060,269.921082 
	C182.242310,270.570068 179.097534,271.624390 176.770340,268.336121 
	C174.652191,265.343231 176.670181,262.938629 178.163330,260.590088 
	C204.072815,219.837845 230.019943,179.109497 255.924927,138.354385 
	C258.178619,134.808762 261.400726,133.132416 265.435944,132.766098 
	C279.852631,131.457397 294.272644,130.185730 308.688507,128.868240 
	C336.689423,126.309135 364.686615,123.709618 392.689392,121.171272 
	C398.983063,120.600777 405.291870,120.192757 411.596619,119.751541 
	C413.874512,119.592125 415.976257,120.054741 417.140747,122.288261 
	C418.406342,124.715775 417.498840,126.755295 415.852631,128.668701 
	C404.668579,141.667831 393.447723,154.636185 382.380524,167.734238 
	C379.990021,170.563400 378.222992,170.304581 375.982849,167.777725 
	C367.968719,158.737915 357.741760,157.696671 346.686462,159.863708 
	C326.291565,163.861496 307.859619,172.580948 290.295013,183.372940 
	C287.315582,185.203537 284.349915,187.056488 281.079224,189.101685 
z"/>
<path fill="#000000" opacity="1.000000" stroke="none" 
	d="
M300.165344,566.813232 
	C317.528442,581.248108 336.700012,592.449341 354.990417,604.930054 
	C389.199493,628.273193 421.708893,653.662231 448.741852,685.390747 
	C454.256073,691.862732 459.380157,698.640503 463.982117,705.797302 
	C464.837677,707.127808 466.273224,708.293945 465.650360,710.499634 
	C463.515961,710.921448 462.464447,709.200684 461.259460,708.051514 
	C431.830444,679.986206 397.809204,658.993347 360.369873,643.593140 
	C344.525787,637.075867 328.086426,632.044983 313.212585,623.252930 
	C282.068420,604.843262 256.491852,580.812988 238.366211,549.280579 
	C223.501846,523.421692 218.687347,495.452911 221.394714,465.986908 
	C221.637589,463.343597 222.011383,460.710724 222.397293,458.083740 
	C222.459534,457.659973 222.905609,457.292542 223.905380,455.828003 
	C239.774017,500.010529 263.433838,537.769958 300.165344,566.813232 
z"/>
<path fill="#000000" opacity="1.000000" stroke="none" 
	d="
M301.790131,180.741852 
	C317.703064,172.158875 333.569122,164.533127 351.446564,162.250763 
	C361.495605,160.967834 369.445190,164.189667 375.061523,172.763504 
	C378.874512,178.584320 382.693024,184.401489 386.513733,190.227402 
	C383.998108,193.032013 380.988647,192.827286 378.335144,193.249191 
	C357.866699,196.503616 337.809113,201.078201 319.172424,210.590347 
	C296.240448,222.294785 278.229492,239.505142 263.305573,260.216522 
	C259.925537,264.907318 256.430847,269.515503 253.182785,273.900024 
	C250.698990,273.574585 250.259232,272.004974 249.579193,270.725861 
	C246.686340,265.284515 243.872955,259.800751 240.958908,254.370895 
	C235.934906,245.009491 236.969009,236.182281 242.937393,227.593704 
	C251.158478,215.763458 262.061920,206.724106 273.639313,198.546280 
	C282.598572,192.217789 292.157135,186.737686 301.790131,180.741852 
M293.272125,193.785889 
	C294.762726,193.293564 296.056732,192.691483 294.953278,190.580246 
	C292.747742,190.395691 291.037933,190.948730 289.867401,193.514999 
	C291.072662,193.671173 291.846130,193.771408 293.272125,193.785889 
z"/>
</svg>